<svg width="24" height="24" viewBox="0 0 24 24" fill="none" xmlns="http://www.w3.org/2000/svg">
<path d="M11.9706 1.7978C12.2981 1.85885 12.5664 1.91762 12.7757 1.9741C13.3856 2.13875 14.0034 2.43167 14.5573 2.79425C14.826 2.96987 15.0953 3.19237 15.3654 3.46175C15.5204 3.60879 15.6705 3.77869 15.8155 3.97147C16.1231 4.37999 16.3721 4.78817 16.5633 5.25776C16.6773 5.53857 16.7574 5.77172 16.8036 5.95717C16.946 6.53068 17.0146 7.10352 17.0098 7.70036C17.008 7.89999 16.9986 8.14193 16.9817 8.42617C16.9762 8.51879 16.9784 8.62775 16.9886 8.75307C17.0239 9.20928 17.406 9.61128 17.7723 9.83567C17.9603 9.95066 18.1687 10.0442 18.3977 10.1162C18.7642 10.2315 19.1395 10.3053 19.5234 10.3377C19.6284 10.3465 19.6964 10.351 19.7275 10.3515C19.8394 10.3527 19.9077 10.3551 19.9327 10.3591C20.1309 10.3902 20.3092 10.3782 20.5744 10.3793C20.8423 10.3803 21.0358 10.3577 21.3771 10.3326C21.7338 10.3062 21.9966 10.2486 22.3625 10.192C22.5346 10.1655 22.6796 10.1784 22.7978 10.2308C22.9908 10.316 23.0994 10.4639 23.1234 10.6743C23.1432 10.8493 23.0483 11.0666 22.958 11.2173C22.9015 11.3115 22.8716 11.3686 22.8209 11.4354C22.7483 11.5308 22.674 11.6289 22.5979 11.7298C22.521 11.8309 22.4421 11.8992 22.367 11.986C22.286 12.0798 22.2283 12.1441 22.1938 12.1791C21.7147 12.6647 21.2086 13.0547 20.6756 13.3487C20.2837 13.5649 19.8535 13.7368 19.3852 13.8643C19.1764 13.9216 18.9046 13.9596 18.6995 13.993C18.5616 14.0156 18.4367 14.0193 18.2897 14.0227C18.269 14.0232 18.2567 14.0333 18.2526 14.0529C18.2516 14.0651 18.2472 14.0748 18.2392 14.0821C18.2369 14.0843 18.2352 14.0869 18.2339 14.0897C18.2327 14.0926 18.2322 14.0956 18.2323 14.0985C18.2375 14.5985 18.1955 15.1199 18.1061 15.663C18.0506 16.0001 17.981 16.3013 17.8972 16.5665C17.5331 17.977 16.7931 19.1446 15.6773 20.0695L15.5094 20.2025C15.5028 20.2079 15.4979 20.215 15.4955 20.2231C15.4642 20.3229 15.5713 20.3513 15.6381 20.3849C15.7009 20.4177 15.7975 20.4574 15.9277 20.504C16.1224 20.5735 16.31 20.6812 16.4901 20.8268C16.6699 20.9719 16.7971 21.0892 16.8167 21.3098C16.8252 21.4074 16.8165 21.488 16.7907 21.5515C16.6716 21.8427 16.4016 21.9487 16.1197 22.0129C16.036 22.0319 15.9391 22.041 15.8289 22.0404C15.2986 22.0367 14.7844 21.9687 14.2863 21.8363C13.9792 21.7548 13.7905 21.7066 13.7203 21.6915C13.432 21.6298 13.16 21.5672 12.9046 21.5036C12.7204 21.4578 12.4878 21.4265 12.2073 21.4096L10.3567 21.4116C10.134 21.4004 9.91117 21.3962 9.68821 21.399C9.53477 21.4007 9.39905 21.4235 9.28105 21.4672C8.97715 21.5795 8.64671 21.7026 8.28974 21.8366C8.12441 21.8986 7.95439 21.9535 7.77968 22.0016C7.51168 22.0755 7.33823 22.1197 7.25933 22.1343C6.95268 22.1909 6.6961 22.227 6.48961 22.2428C6.20457 22.2647 5.84132 22.2664 5.53569 22.1981C5.27981 22.1412 5.08428 22.0815 4.92239 21.9643C4.70218 21.8047 4.56394 21.5989 4.61745 21.3228C4.65929 21.1108 4.78175 20.9595 4.93817 20.8097C5.0278 20.7236 5.19154 20.596 5.42936 20.4268C5.50505 20.373 5.52815 20.3067 5.49865 20.2275C5.49294 20.2213 5.48904 20.2147 5.48699 20.2073C5.47716 20.1881 5.46481 20.1719 5.44994 20.1586C4.67702 19.4673 4.12796 18.6287 3.80279 17.6426C3.67977 17.2699 3.59424 16.8876 3.54622 16.4959C3.53844 16.3966 3.52963 16.2963 3.5198 16.1947C3.50792 16.0719 3.5014 15.941 3.50026 15.8016C3.49957 15.7018 3.52963 15.6264 3.59047 15.5759C3.75488 15.439 3.94662 15.2707 4.1657 15.0714C4.26769 14.9783 4.34876 14.8832 4.4089 14.786C4.43977 14.6828 4.4161 14.6088 4.33789 14.5637C4.23602 14.4811 4.06691 14.6083 3.97087 14.6807C3.68205 14.899 3.40536 15.1251 3.14077 15.3588C2.4424 15.9761 1.99374 16.3676 1.7948 16.5336C1.59002 16.7045 1.32521 16.7786 1.0923 16.6174C0.981397 16.5405 0.918968 16.458 0.905019 16.3697C0.89267 16.2908 0.877463 16.2122 0.859398 16.134C0.85837 15.8994 0.891641 15.6946 0.915652 15.4789C0.933031 15.324 0.952241 15.1948 0.973279 15.0912C1.1258 14.3394 1.35974 13.6171 1.67508 12.9245C1.95224 12.3162 2.24528 11.7744 2.55422 11.2993C2.79845 10.9235 3.11928 10.4586 3.51672 9.90424C3.73522 9.59962 3.90055 9.28264 3.96092 8.90815C3.98151 8.78005 4.01077 8.54817 4.04873 8.21248C4.06703 8.0524 4.12729 7.7334 4.2295 7.25547C4.26998 7.06635 4.3252 6.8713 4.39517 6.67029C4.50997 6.33916 4.57743 6.14788 4.59755 6.09643C5.24277 4.44037 6.52871 2.99799 8.17827 2.29001L8.52196 2.1511L8.71302 2.08386L9.42478 1.87806C10.269 1.70174 11.1177 1.67499 11.9706 1.7978ZM7.28334 4.66093C7.0597 4.91018 6.88111 5.17304 6.74756 5.4495C6.60052 5.7541 6.49636 6.08625 6.43508 6.44596C6.40466 6.62479 6.38236 6.80441 6.36819 6.98483C6.33183 7.44996 6.36967 7.90811 6.48172 8.35928C6.4991 8.43932 6.52278 8.51765 6.55273 8.59425C6.64145 8.82064 6.7343 9.01778 6.83126 9.1856C7.02357 9.51787 7.26208 9.79835 7.54677 10.027C7.6339 10.0967 7.74539 10.1965 7.80267 10.261C7.90557 10.3774 7.92844 10.5078 7.87127 10.6523C7.86762 10.6613 7.86301 10.6695 7.85756 10.677C7.78575 10.7745 7.7431 10.8291 7.72961 10.841C7.28003 11.2353 6.89688 11.6776 6.58017 12.1682C6.50779 12.2806 6.46388 12.389 6.40386 12.4974C6.36018 12.5765 6.31879 12.6602 6.27968 12.7485C5.95016 13.491 5.7686 14.2722 5.73498 15.0919L5.72812 15.3817L5.73464 15.6284L5.77752 16.1779C5.88249 17.0029 6.1785 17.7532 6.66558 18.4284C6.77055 18.5736 6.89105 18.7165 7.02712 18.8568C7.27203 19.1093 7.56427 19.3525 7.8651 19.5449C8.4855 19.9416 9.16168 20.2137 9.89368 20.361C10.3051 20.4437 10.72 20.4856 11.1385 20.4865C11.4851 20.5037 11.8281 20.4919 12.1675 20.4512C12.8573 20.3692 13.5341 20.1922 14.155 19.8763C14.537 19.6972 14.886 19.4684 15.2018 19.1895C15.2118 19.1809 15.2161 19.1703 15.2145 19.1577C15.2319 19.1613 15.2505 19.154 15.2704 19.1354C15.5136 18.9066 15.7637 18.6569 15.9588 18.3965C16.3484 17.8766 16.6562 17.2961 16.8616 16.6715C16.9477 16.4111 16.9972 16.2523 17.0105 16.1954C17.1347 15.6678 17.2125 15.1907 17.2441 14.764C17.296 14.0609 17.2737 13.3266 17.1772 12.5612C17.1498 12.3433 17.0945 12.0984 17.0527 11.872C17.0197 11.6934 16.9605 11.5016 16.9141 11.3154L16.7861 10.8945C16.6769 10.5766 16.5738 10.309 16.4767 10.0919C16.3684 9.84966 16.2872 9.65782 16.2332 9.51623C16.1358 9.25395 16.0779 9.0221 16.0593 8.82064C16.0295 8.49683 16.0867 8.16788 16.1046 7.84099C16.1174 7.75845 16.1236 7.67417 16.1231 7.5882C16.121 7.25318 16.0923 6.92573 16.0371 6.6058C15.9715 6.22849 15.8542 5.87964 15.7163 5.54589C15.469 4.94733 15.0276 4.3793 14.4746 4.03458C14.2381 3.88731 13.9699 3.78967 13.6699 3.74165C13.3205 3.69111 12.9888 3.73067 12.6748 3.86032C12.4385 3.95809 12.219 4.12617 12.0104 4.28257C11.8931 4.37039 11.7254 4.42424 11.6005 4.31894C11.5799 4.30156 11.4662 4.21866 11.2592 4.07025C10.9505 3.84889 10.5958 3.70461 10.1952 3.63737C10.1636 3.63211 10.1113 3.62685 10.0381 3.62159C10.018 3.61633 9.996 3.61245 9.97222 3.60993C8.94455 3.50325 7.97074 3.88091 7.28334 4.66093Z" fill="#00E587"/>
<path d="M14.3983 6.46174C14.4054 6.05071 14.1691 5.71328 13.8703 5.70807C13.5716 5.70286 13.3237 6.03183 13.3166 6.44286C13.3093 6.85388 13.5456 7.19131 13.8444 7.19652C14.1431 7.20174 14.391 6.87276 14.3983 6.46174Z" fill="#00E587"/>
<path d="M10.6595 6.46026C10.6602 6.05126 10.4178 5.71928 10.1182 5.71875C9.81847 5.71823 9.57493 6.04936 9.57422 6.45836C9.57351 6.86736 9.81588 7.19936 10.1156 7.19988C10.4153 7.20039 10.6588 6.86926 10.6595 6.46026Z" fill="#00E587"/>
<path d="M13.9325 8.15049C13.9825 8.41358 13.8319 8.5254 13.5902 8.60257C13.3374 8.6833 13.1346 8.73726 12.9816 8.76448C12.8412 8.78964 12.7558 8.8053 12.7254 8.81147C12.6364 8.82999 12.5499 8.84051 12.4658 8.84303C12.2171 8.85012 12.0098 8.83377 11.8435 8.79398C11.1431 8.62625 11.0042 7.79032 11.5869 7.38625C11.8442 7.20812 12.1427 7.1729 12.4826 7.2806C12.5367 7.29775 12.6616 7.35973 12.8571 7.46652C12.9141 7.49761 13.0377 7.56027 13.2283 7.65448C13.4142 7.74619 13.5863 7.84372 13.7448 7.94708C13.8187 7.99555 13.8771 8.05284 13.9197 8.11893C13.9259 8.12845 13.9302 8.13915 13.9325 8.15049Z" fill="#00E587"/>
</svg>
