<svg width="132" height="24" viewBox="0 0 132 24" fill="none" xmlns="http://www.w3.org/2000/svg">
<g clip-path="url(#clip0_149_8)">
<path d="M11.9706 1.7978C12.2981 1.85885 12.5664 1.91762 12.7757 1.9741C13.3856 2.13875 14.0034 2.43167 14.5573 2.79425C14.826 2.96987 15.0953 3.19237 15.3654 3.46175C15.5204 3.60879 15.6705 3.77869 15.8155 3.97147C16.1231 4.37999 16.3721 4.78817 16.5633 5.25776C16.6773 5.53857 16.7574 5.77172 16.8036 5.95717C16.946 6.53068 17.0146 7.10352 17.0098 7.70036C17.008 7.89999 16.9986 8.14193 16.9817 8.42617C16.9762 8.51879 16.9784 8.62775 16.9886 8.75307C17.0239 9.20928 17.406 9.61128 17.7723 9.83567C17.9603 9.95066 18.1687 10.0442 18.3977 10.1162C18.7642 10.2315 19.1395 10.3053 19.5234 10.3377C19.6284 10.3465 19.6964 10.351 19.7275 10.3515C19.8394 10.3527 19.9077 10.3551 19.9327 10.3591C20.1309 10.3902 20.3092 10.3782 20.5744 10.3793C20.8423 10.3803 21.0358 10.3577 21.3771 10.3326C21.7338 10.3062 21.9966 10.2486 22.3625 10.192C22.5346 10.1655 22.6796 10.1784 22.7978 10.2308C22.9908 10.316 23.0994 10.4639 23.1234 10.6743C23.1432 10.8493 23.0483 11.0666 22.958 11.2173C22.9015 11.3115 22.8716 11.3686 22.8209 11.4354C22.7483 11.5308 22.674 11.6289 22.5979 11.7298C22.521 11.8309 22.4421 11.8992 22.367 11.986C22.286 12.0798 22.2283 12.1441 22.1938 12.1791C21.7147 12.6647 21.2086 13.0547 20.6756 13.3487C20.2837 13.5649 19.8535 13.7368 19.3852 13.8643C19.1764 13.9216 18.9046 13.9596 18.6995 13.993C18.5616 14.0156 18.4367 14.0193 18.2897 14.0227C18.269 14.0232 18.2567 14.0333 18.2526 14.0529C18.2516 14.0651 18.2472 14.0748 18.2392 14.0821C18.2369 14.0843 18.2352 14.0869 18.2339 14.0897C18.2327 14.0926 18.2322 14.0956 18.2323 14.0985C18.2375 14.5985 18.1955 15.1199 18.1061 15.663C18.0506 16.0001 17.981 16.3013 17.8972 16.5665C17.5331 17.977 16.7931 19.1446 15.6773 20.0695L15.5094 20.2025C15.5028 20.2079 15.4979 20.215 15.4955 20.2231C15.4642 20.3229 15.5713 20.3513 15.6381 20.3849C15.7009 20.4177 15.7975 20.4574 15.9277 20.504C16.1224 20.5735 16.31 20.6812 16.4901 20.8268C16.6699 20.9719 16.7971 21.0892 16.8167 21.3098C16.8252 21.4074 16.8165 21.488 16.7907 21.5515C16.6716 21.8427 16.4016 21.9487 16.1197 22.0129C16.036 22.0319 15.9391 22.041 15.8289 22.0404C15.2986 22.0367 14.7844 21.9687 14.2863 21.8363C13.9792 21.7548 13.7905 21.7066 13.7203 21.6915C13.432 21.6298 13.16 21.5672 12.9046 21.5036C12.7204 21.4578 12.4878 21.4265 12.2073 21.4096L10.3567 21.4116C10.134 21.4004 9.91117 21.3962 9.68821 21.399C9.53477 21.4007 9.39905 21.4235 9.28105 21.4672C8.97715 21.5795 8.64671 21.7026 8.28974 21.8366C8.12441 21.8986 7.95439 21.9535 7.77968 22.0016C7.51168 22.0755 7.33823 22.1197 7.25933 22.1343C6.95268 22.1909 6.6961 22.227 6.48961 22.2428C6.20457 22.2647 5.84132 22.2664 5.53569 22.1981C5.27981 22.1412 5.08428 22.0815 4.92239 21.9643C4.70218 21.8047 4.56394 21.5989 4.61745 21.3228C4.65929 21.1108 4.78175 20.9595 4.93817 20.8097C5.0278 20.7236 5.19154 20.596 5.42936 20.4268C5.50505 20.373 5.52815 20.3067 5.49865 20.2275C5.49294 20.2213 5.48904 20.2147 5.48699 20.2073C5.47716 20.1881 5.46481 20.1719 5.44994 20.1586C4.67702 19.4673 4.12796 18.6287 3.80279 17.6426C3.67977 17.2699 3.59424 16.8876 3.54622 16.4959C3.53844 16.3966 3.52963 16.2963 3.5198 16.1947C3.50792 16.0719 3.5014 15.941 3.50026 15.8016C3.49957 15.7018 3.52963 15.6264 3.59047 15.5759C3.75488 15.439 3.94662 15.2707 4.1657 15.0714C4.26769 14.9783 4.34876 14.8832 4.4089 14.786C4.43977 14.6828 4.4161 14.6088 4.33789 14.5637C4.23602 14.4811 4.06691 14.6083 3.97087 14.6807C3.68205 14.899 3.40536 15.1251 3.14077 15.3588C2.4424 15.9761 1.99374 16.3676 1.7948 16.5336C1.59002 16.7045 1.32521 16.7786 1.0923 16.6174C0.981397 16.5405 0.918968 16.458 0.905019 16.3697C0.89267 16.2908 0.877463 16.2122 0.859398 16.134C0.85837 15.8994 0.891641 15.6946 0.915652 15.4789C0.933031 15.324 0.952241 15.1948 0.973279 15.0912C1.1258 14.3394 1.35974 13.6171 1.67508 12.9245C1.95224 12.3162 2.24528 11.7744 2.55422 11.2993C2.79845 10.9235 3.11928 10.4586 3.51672 9.90424C3.73522 9.59962 3.90055 9.28264 3.96092 8.90815C3.98151 8.78005 4.01077 8.54817 4.04873 8.21248C4.06703 8.0524 4.12729 7.7334 4.2295 7.25547C4.26998 7.06635 4.3252 6.8713 4.39517 6.67029C4.50997 6.33916 4.57743 6.14788 4.59755 6.09643C5.24277 4.44037 6.52871 2.99799 8.17827 2.29001L8.52196 2.1511L8.71302 2.08386L9.42478 1.87806C10.269 1.70174 11.1177 1.67499 11.9706 1.7978ZM7.28334 4.66093C7.0597 4.91018 6.88111 5.17304 6.74756 5.4495C6.60052 5.7541 6.49636 6.08625 6.43508 6.44596C6.40466 6.62479 6.38236 6.80441 6.36819 6.98483C6.33183 7.44996 6.36967 7.90811 6.48172 8.35928C6.4991 8.43932 6.52278 8.51765 6.55273 8.59425C6.64145 8.82064 6.7343 9.01778 6.83126 9.1856C7.02357 9.51787 7.26208 9.79835 7.54677 10.027C7.6339 10.0967 7.74539 10.1965 7.80267 10.261C7.90557 10.3774 7.92844 10.5078 7.87127 10.6523C7.86762 10.6613 7.86301 10.6695 7.85756 10.677C7.78575 10.7745 7.7431 10.8291 7.72961 10.841C7.28003 11.2353 6.89688 11.6776 6.58017 12.1682C6.50779 12.2806 6.46388 12.389 6.40386 12.4974C6.36018 12.5765 6.31879 12.6602 6.27968 12.7485C5.95016 13.491 5.7686 14.2722 5.73498 15.0919L5.72812 15.3817L5.73464 15.6284L5.77752 16.1779C5.88249 17.0029 6.1785 17.7532 6.66558 18.4284C6.77055 18.5736 6.89105 18.7165 7.02712 18.8568C7.27203 19.1093 7.56427 19.3525 7.8651 19.5449C8.4855 19.9416 9.16168 20.2137 9.89368 20.361C10.3051 20.4437 10.72 20.4856 11.1385 20.4865C11.4851 20.5037 11.8281 20.4919 12.1675 20.4512C12.8573 20.3692 13.5341 20.1922 14.155 19.8763C14.537 19.6972 14.886 19.4684 15.2018 19.1895C15.2118 19.1809 15.2161 19.1703 15.2145 19.1577C15.2319 19.1613 15.2505 19.154 15.2704 19.1354C15.5136 18.9066 15.7637 18.6569 15.9588 18.3965C16.3484 17.8766 16.6562 17.2961 16.8616 16.6715C16.9477 16.4111 16.9972 16.2523 17.0105 16.1954C17.1347 15.6678 17.2125 15.1907 17.2441 14.764C17.296 14.0609 17.2737 13.3266 17.1772 12.5612C17.1498 12.3433 17.0945 12.0984 17.0527 11.872C17.0197 11.6934 16.9605 11.5016 16.9141 11.3154L16.7861 10.8945C16.6769 10.5766 16.5738 10.309 16.4767 10.0919C16.3684 9.84966 16.2872 9.65782 16.2332 9.51623C16.1358 9.25395 16.0779 9.0221 16.0593 8.82064C16.0295 8.49683 16.0867 8.16788 16.1046 7.84099C16.1174 7.75845 16.1236 7.67417 16.1231 7.5882C16.121 7.25318 16.0923 6.92573 16.0371 6.6058C15.9715 6.22849 15.8542 5.87964 15.7163 5.54589C15.469 4.94733 15.0276 4.3793 14.4746 4.03458C14.2381 3.88731 13.9699 3.78967 13.6699 3.74165C13.3205 3.69111 12.9888 3.73067 12.6748 3.86032C12.4385 3.95809 12.219 4.12617 12.0104 4.28257C11.8931 4.37039 11.7254 4.42424 11.6005 4.31894C11.5799 4.30156 11.4662 4.21866 11.2592 4.07025C10.9505 3.84889 10.5958 3.70461 10.1952 3.63737C10.1636 3.63211 10.1113 3.62685 10.0381 3.62159C10.018 3.61633 9.996 3.61245 9.97222 3.60993C8.94455 3.50325 7.97074 3.88091 7.28334 4.66093Z" fill="#00E587"/>
<path d="M14.3983 6.46174C14.4054 6.05071 14.1691 5.71328 13.8703 5.70807C13.5716 5.70286 13.3237 6.03183 13.3166 6.44286C13.3093 6.85388 13.5456 7.19131 13.8444 7.19652C14.1431 7.20174 14.391 6.87276 14.3983 6.46174Z" fill="#00E587"/>
<path d="M10.6595 6.46026C10.6602 6.05126 10.4178 5.71928 10.1182 5.71875C9.81847 5.71823 9.57493 6.04936 9.57422 6.45836C9.57351 6.86736 9.81588 7.19936 10.1156 7.19988C10.4153 7.20039 10.6588 6.86926 10.6595 6.46026Z" fill="#00E587"/>
<path d="M13.9325 8.15049C13.9825 8.41358 13.8319 8.5254 13.5902 8.60257C13.3374 8.6833 13.1346 8.73726 12.9816 8.76448C12.8412 8.78964 12.7558 8.8053 12.7254 8.81147C12.6364 8.82999 12.5499 8.84051 12.4658 8.84303C12.2171 8.85012 12.0098 8.83377 11.8435 8.79398C11.1431 8.62625 11.0042 7.79032 11.5869 7.38625C11.8442 7.20812 12.1427 7.1729 12.4826 7.2806C12.5367 7.29775 12.6616 7.35973 12.8571 7.46652C12.9141 7.49761 13.0377 7.56027 13.2283 7.65448C13.4142 7.74619 13.5863 7.84372 13.7448 7.94708C13.8187 7.99555 13.8771 8.05284 13.9197 8.11893C13.9259 8.12845 13.9302 8.13915 13.9325 8.15049Z" fill="#00E587"/>
</g>
<path d="M29.9588 17V8.27273H33.0696C33.7486 8.27273 34.3111 8.39631 34.7571 8.64347C35.2031 8.89062 35.5369 9.22869 35.7585 9.65767C35.9801 10.0838 36.0909 10.5639 36.0909 11.098C36.0909 11.6349 35.9787 12.1179 35.7543 12.5469C35.5327 12.973 35.1974 13.3111 34.7486 13.5611C34.3026 13.8082 33.7415 13.9318 33.0653 13.9318H30.9261V12.8153H32.946C33.375 12.8153 33.723 12.7415 33.9901 12.5938C34.2571 12.4432 34.4531 12.2386 34.5781 11.9801C34.7031 11.7216 34.7656 11.4276 34.7656 11.098C34.7656 10.7685 34.7031 10.4759 34.5781 10.2202C34.4531 9.96449 34.2557 9.7642 33.9858 9.61932C33.7188 9.47443 33.3665 9.40199 32.929 9.40199H31.2756V17H29.9588ZM37.5323 17V10.4545H38.8065V17H37.5323ZM38.1758 9.4446C37.9542 9.4446 37.7638 9.37074 37.6048 9.22301C37.4485 9.07244 37.3704 8.89347 37.3704 8.68608C37.3704 8.47585 37.4485 8.29687 37.6048 8.14915C37.7638 7.99858 37.9542 7.9233 38.1758 7.9233C38.3974 7.9233 38.5863 7.99858 38.7425 8.14915C38.9016 8.29687 38.9812 8.47585 38.9812 8.68608C38.9812 8.89347 38.9016 9.07244 38.7425 9.22301C38.5863 9.37074 38.3974 9.4446 38.1758 9.4446ZM41.7947 13.1136V17H40.5206V10.4545H41.7436V11.5199H41.8246C41.9751 11.1733 42.2109 10.8949 42.532 10.6847C42.8558 10.4744 43.2635 10.3693 43.755 10.3693C44.201 10.3693 44.5916 10.4631 44.9268 10.6506C45.2621 10.8352 45.522 11.1108 45.7067 11.4773C45.8913 11.8437 45.9837 12.2969 45.9837 12.8366V17H44.7095V12.9901C44.7095 12.5156 44.5859 12.1449 44.3388 11.8778C44.0916 11.608 43.7521 11.473 43.3203 11.473C43.0249 11.473 42.7621 11.5369 42.532 11.6648C42.3047 11.7926 42.1243 11.9801 41.9908 12.2273C41.8601 12.4716 41.7947 12.767 41.7947 13.1136ZM50.4368 19.5909C49.9169 19.5909 49.4695 19.5227 49.0945 19.3864C48.7223 19.25 48.4183 19.0696 48.1825 18.8452C47.9467 18.6207 47.7706 18.375 47.6541 18.108L48.7493 17.6562C48.826 17.7812 48.9283 17.9134 49.0561 18.0526C49.1868 18.1946 49.3629 18.3153 49.5845 18.4148C49.8089 18.5142 50.0973 18.5639 50.4496 18.5639C50.9325 18.5639 51.3317 18.446 51.647 18.2102C51.9624 17.9773 52.12 17.6051 52.12 17.0938V15.8068H52.0391C51.9624 15.946 51.8516 16.1009 51.7067 16.2713C51.5646 16.4418 51.3686 16.5895 51.1186 16.7145C50.8686 16.8395 50.5433 16.902 50.1428 16.902C49.6257 16.902 49.1598 16.7812 48.745 16.5398C48.3331 16.2955 48.0064 15.9361 47.7649 15.4616C47.5263 14.9844 47.407 14.3977 47.407 13.7017C47.407 13.0057 47.5249 12.4091 47.7607 11.9119C47.9993 11.4148 48.326 11.0341 48.7408 10.7699C49.1555 10.5028 49.6257 10.3693 50.1513 10.3693C50.5575 10.3693 50.8857 10.4375 51.1357 10.5739C51.3857 10.7074 51.5803 10.8636 51.7195 11.0426C51.8615 11.2216 51.9709 11.3793 52.0476 11.5156H52.1413V10.4545H53.3899V17.1449C53.3899 17.7074 53.2592 18.169 52.9979 18.5298C52.7365 18.8906 52.3828 19.1577 51.9368 19.331C51.4936 19.5043 50.9936 19.5909 50.4368 19.5909ZM50.424 15.8452C50.7905 15.8452 51.1001 15.7599 51.353 15.5895C51.6087 15.4162 51.8018 15.169 51.9325 14.848C52.0661 14.5241 52.1328 14.1364 52.1328 13.6847C52.1328 13.2443 52.0675 12.8565 51.9368 12.5213C51.8061 12.1861 51.6143 11.9247 51.3615 11.7372C51.1087 11.5469 50.7962 11.4517 50.424 11.4517C50.0405 11.4517 49.7209 11.5511 49.4652 11.75C49.2095 11.946 49.0163 12.2131 48.8857 12.5511C48.7578 12.8892 48.6939 13.267 48.6939 13.6847C48.6939 14.1136 48.7592 14.4901 48.8899 14.8139C49.0206 15.1378 49.2138 15.3906 49.4695 15.5724C49.728 15.7543 50.0462 15.8452 50.424 15.8452ZM57.8558 17.1321C57.2422 17.1321 56.7067 16.9915 56.2493 16.7102C55.7919 16.429 55.4368 16.0355 55.1839 15.5298C54.9311 15.0241 54.8047 14.4332 54.8047 13.7571C54.8047 13.0781 54.9311 12.4844 55.1839 11.9759C55.4368 11.4673 55.7919 11.0724 56.2493 10.7912C56.7067 10.5099 57.2422 10.3693 57.8558 10.3693C58.4695 10.3693 59.005 10.5099 59.4624 10.7912C59.9197 11.0724 60.2749 11.4673 60.5277 11.9759C60.7805 12.4844 60.907 13.0781 60.907 13.7571C60.907 14.4332 60.7805 15.0241 60.5277 15.5298C60.2749 16.0355 59.9197 16.429 59.4624 16.7102C59.005 16.9915 58.4695 17.1321 57.8558 17.1321ZM57.8601 16.0625C58.2578 16.0625 58.5874 15.9574 58.8487 15.7472C59.1101 15.5369 59.3033 15.2571 59.4283 14.9077C59.5561 14.5582 59.62 14.1733 59.62 13.7528C59.62 13.3352 59.5561 12.9517 59.4283 12.6023C59.3033 12.25 59.1101 11.9673 58.8487 11.7543C58.5874 11.5412 58.2578 11.4347 57.8601 11.4347C57.4595 11.4347 57.1271 11.5412 56.8629 11.7543C56.6016 11.9673 56.407 12.25 56.2791 12.6023C56.1541 12.9517 56.0916 13.3352 56.0916 13.7528C56.0916 14.1733 56.1541 14.5582 56.2791 14.9077C56.407 15.2571 56.6016 15.5369 56.8629 15.7472C57.1271 15.9574 57.4595 16.0625 57.8601 16.0625ZM72.6513 8.27273V17H71.4411L67.005 10.5994H66.924V17H65.6072V8.27273H66.826L71.2663 14.6818H71.3473V8.27273H72.6513ZM77.2269 17.1321C76.6133 17.1321 76.0778 16.9915 75.6204 16.7102C75.163 16.429 74.8079 16.0355 74.555 15.5298C74.3022 15.0241 74.1758 14.4332 74.1758 13.7571C74.1758 13.0781 74.3022 12.4844 74.555 11.9759C74.8079 11.4673 75.163 11.0724 75.6204 10.7912C76.0778 10.5099 76.6133 10.3693 77.2269 10.3693C77.8406 10.3693 78.3761 10.5099 78.8335 10.7912C79.2908 11.0724 79.646 11.4673 79.8988 11.9759C80.1516 12.4844 80.2781 13.0781 80.2781 13.7571C80.2781 14.4332 80.1516 15.0241 79.8988 15.5298C79.646 16.0355 79.2908 16.429 78.8335 16.7102C78.3761 16.9915 77.8406 17.1321 77.2269 17.1321ZM77.2312 16.0625C77.6289 16.0625 77.9585 15.9574 78.2198 15.7472C78.4812 15.5369 78.6744 15.2571 78.7994 14.9077C78.9272 14.5582 78.9911 14.1733 78.9911 13.7528C78.9911 13.3352 78.9272 12.9517 78.7994 12.6023C78.6744 12.25 78.4812 11.9673 78.2198 11.7543C77.9585 11.5412 77.6289 11.4347 77.2312 11.4347C76.8306 11.4347 76.4982 11.5412 76.234 11.7543C75.9727 11.9673 75.7781 12.25 75.6502 12.6023C75.5252 12.9517 75.4627 13.3352 75.4627 13.7528C75.4627 14.1733 75.5252 14.5582 75.6502 14.9077C75.7781 15.2571 75.9727 15.5369 76.234 15.7472C76.4982 15.9574 76.8306 16.0625 77.2312 16.0625ZM84.7557 10.4545V11.4773H81.1804V10.4545H84.7557ZM82.1392 8.88636H83.4134V15.0781C83.4134 15.3253 83.4503 15.5114 83.5241 15.6364C83.598 15.7585 83.6932 15.8423 83.8097 15.8878C83.929 15.9304 84.0582 15.9517 84.1974 15.9517C84.2997 15.9517 84.3892 15.9446 84.4659 15.9304C84.5426 15.9162 84.6023 15.9048 84.6449 15.8963L84.875 16.9489C84.8011 16.9773 84.696 17.0057 84.5597 17.0341C84.4233 17.0653 84.2528 17.0824 84.0483 17.0852C83.7131 17.0909 83.4006 17.0312 83.1108 16.9062C82.821 16.7812 82.5866 16.5881 82.4077 16.3267C82.2287 16.0653 82.1392 15.7372 82.1392 15.3423V8.88636ZM86.1651 17V10.4545H87.4393V17H86.1651ZM86.8086 9.4446C86.587 9.4446 86.3967 9.37074 86.2376 9.22301C86.0813 9.07244 86.0032 8.89347 86.0032 8.68608C86.0032 8.47585 86.0813 8.29687 86.2376 8.14915C86.3967 7.99858 86.587 7.9233 86.8086 7.9233C87.0302 7.9233 87.2191 7.99858 87.3754 8.14915C87.5344 8.29687 87.614 8.47585 87.614 8.68608C87.614 8.89347 87.5344 9.07244 87.3754 9.22301C87.2191 9.37074 87.0302 9.4446 86.8086 9.4446ZM92.2685 10.4545V11.4773H88.5696V10.4545H92.2685ZM89.5838 17V9.69602C89.5838 9.28693 89.6733 8.94744 89.8523 8.67756C90.0313 8.40483 90.2685 8.2017 90.5639 8.06818C90.8594 7.93182 91.1804 7.86364 91.527 7.86364C91.7827 7.86364 92.0014 7.88494 92.1832 7.92756C92.3651 7.96733 92.5 8.00426 92.5881 8.03835L92.2898 9.0696C92.2301 9.05256 92.1534 9.03267 92.0597 9.00994C91.9659 8.98437 91.8523 8.97159 91.7188 8.97159C91.4091 8.97159 91.1875 9.0483 91.054 9.2017C90.9233 9.35511 90.858 9.5767 90.858 9.86648V17H89.5838ZM94.3885 19.4545C94.1982 19.4545 94.0249 19.4389 93.8686 19.4077C93.7124 19.3793 93.5959 19.348 93.5192 19.3139L93.826 18.2699C94.0589 18.3324 94.2663 18.3594 94.4482 18.3509C94.63 18.3423 94.7905 18.2741 94.9297 18.1463C95.0717 18.0185 95.1967 17.8097 95.3047 17.5199L95.4624 17.0852L93.0675 10.4545H94.4311L96.0888 15.5341H96.157L97.8146 10.4545H99.1825L96.4851 17.8736C96.3601 18.2145 96.201 18.5028 96.0078 18.7386C95.8146 18.9773 95.5845 19.1563 95.3175 19.2756C95.0504 19.3949 94.7408 19.4545 94.3885 19.4545Z" fill="#D6D6D6"/>
<path d="M105.852 17H102.759V8.27273H105.878C106.756 8.27273 107.511 8.44744 108.145 8.79688C108.778 9.14347 109.266 9.64205 109.607 10.2926C109.95 10.9432 110.122 11.7216 110.122 12.6278C110.122 13.5369 109.95 14.3182 109.607 14.9716C109.266 15.625 108.776 16.1264 108.136 16.4759C107.5 16.8253 106.739 17 105.852 17ZM104.604 15.419H105.776C106.321 15.419 106.78 15.3224 107.152 15.1293C107.527 14.9332 107.808 14.6307 107.996 14.2216C108.186 13.8097 108.281 13.2784 108.281 12.6278C108.281 11.983 108.186 11.456 107.996 11.0469C107.808 10.6378 107.528 10.3366 107.156 10.1435C106.784 9.95028 106.325 9.85369 105.78 9.85369H104.604V15.419ZM114.412 17.1278C113.75 17.1278 113.178 16.9872 112.695 16.706C112.215 16.4219 111.844 16.027 111.583 15.5213C111.321 15.0128 111.191 14.4233 111.191 13.7528C111.191 13.0767 111.321 12.4858 111.583 11.9801C111.844 11.4716 112.215 11.0767 112.695 10.7955C113.178 10.5114 113.75 10.3693 114.412 10.3693C115.074 10.3693 115.645 10.5114 116.125 10.7955C116.608 11.0767 116.98 11.4716 117.242 11.9801C117.503 12.4858 117.634 13.0767 117.634 13.7528C117.634 14.4233 117.503 15.0128 117.242 15.5213C116.98 16.027 116.608 16.4219 116.125 16.706C115.645 16.9872 115.074 17.1278 114.412 17.1278ZM114.421 15.7216C114.722 15.7216 114.973 15.6364 115.175 15.4659C115.377 15.2926 115.529 15.0568 115.631 14.7585C115.736 14.4602 115.789 14.1207 115.789 13.7401C115.789 13.3594 115.736 13.0199 115.631 12.7216C115.529 12.4233 115.377 12.1875 115.175 12.0142C114.973 11.8409 114.722 11.7543 114.421 11.7543C114.117 11.7543 113.861 11.8409 113.654 12.0142C113.449 12.1875 113.294 12.4233 113.189 12.7216C113.087 13.0199 113.036 13.3594 113.036 13.7401C113.036 14.1207 113.087 14.4602 113.189 14.7585C113.294 15.0568 113.449 15.2926 113.654 15.4659C113.861 15.6364 114.117 15.7216 114.421 15.7216ZM121.772 17.1278C121.101 17.1278 120.525 16.9858 120.042 16.7017C119.561 16.4148 119.192 16.017 118.934 15.5085C118.678 15 118.55 14.4148 118.55 13.7528C118.55 13.0824 118.679 12.4943 118.938 11.9886C119.199 11.4801 119.57 11.0838 120.05 10.7997C120.53 10.5128 121.101 10.3693 121.763 10.3693C122.334 10.3693 122.834 10.473 123.263 10.6804C123.692 10.8878 124.032 11.179 124.282 11.554C124.532 11.929 124.669 12.3693 124.695 12.875H122.982C122.934 12.5483 122.806 12.2855 122.598 12.0866C122.394 11.8849 122.125 11.7841 121.793 11.7841C121.512 11.7841 121.266 11.8608 121.056 12.0142C120.848 12.1648 120.686 12.3849 120.57 12.6747C120.453 12.9645 120.395 13.3153 120.395 13.7273C120.395 14.1449 120.452 14.5 120.566 14.7926C120.682 15.0852 120.846 15.3082 121.056 15.4616C121.266 15.6151 121.512 15.6918 121.793 15.6918C122 15.6918 122.186 15.6491 122.351 15.5639C122.519 15.4787 122.657 15.3551 122.765 15.1932C122.875 15.0284 122.948 14.831 122.982 14.6009H124.695C124.667 15.1009 124.53 15.5412 124.286 15.9219C124.044 16.2997 123.711 16.5952 123.284 16.8082C122.858 17.0213 122.354 17.1278 121.772 17.1278ZM131.303 12.321L129.641 12.4233C129.613 12.2812 129.552 12.1534 129.458 12.0398C129.364 11.9233 129.241 11.831 129.087 11.7628C128.937 11.6918 128.756 11.6562 128.546 11.6562C128.265 11.6562 128.028 11.7159 127.835 11.8352C127.641 11.9517 127.545 12.108 127.545 12.304C127.545 12.4602 127.607 12.5923 127.732 12.7003C127.857 12.8082 128.072 12.8949 128.376 12.9602L129.56 13.1989C130.197 13.3295 130.671 13.5398 130.984 13.8295C131.296 14.1193 131.452 14.5 131.452 14.9716C131.452 15.4006 131.326 15.777 131.073 16.1009C130.823 16.4247 130.479 16.6776 130.042 16.8594C129.607 17.0384 129.106 17.1278 128.538 17.1278C127.671 17.1278 126.981 16.9474 126.467 16.5866C125.955 16.223 125.656 15.7287 125.567 15.1037L127.353 15.0099C127.407 15.2741 127.538 15.4759 127.745 15.6151C127.952 15.7514 128.218 15.8196 128.542 15.8196C128.86 15.8196 129.116 15.7585 129.309 15.6364C129.505 15.5114 129.604 15.3509 129.607 15.1548C129.604 14.9901 129.535 14.8551 129.398 14.75C129.262 14.642 129.052 14.5597 128.768 14.5028L127.634 14.277C126.995 14.1491 126.519 13.9276 126.207 13.6122C125.897 13.2969 125.742 12.8949 125.742 12.4062C125.742 11.9858 125.856 11.6236 126.083 11.3196C126.313 11.0156 126.636 10.7812 127.05 10.6165C127.468 10.4517 127.957 10.3693 128.516 10.3693C129.343 10.3693 129.994 10.544 130.468 10.8935C130.945 11.2429 131.224 11.7187 131.303 12.321Z" fill="white"/>
<defs>
<clipPath id="clip0_149_8">
<rect width="24" height="24" fill="white"/>
</clipPath>
</defs>
</svg>
